<svg id="Layer_1" data-name="Layer 1" xmlns="http://www.w3.org/2000/svg" viewBox="0 0 64 64"><defs><style>.cls-1{fill:#666;}</style></defs><title>Artboard 12</title><path class="cls-1" d="M32,4A28,28,0,1,0,60,32,28,28,0,0,0,32,4ZM56.11,32A24.11,24.11,0,1,1,32,7.89,24.13,24.13,0,0,1,56.11,32Z"/><path class="cls-1" d="M19,36a2,2,0,0,0-1.37-.7,1.16,1.16,0,0,0-1.15,1.27V38.8a1.94,1.94,0,0,0,1.94,1.94h2.27A1.18,1.18,0,0,0,21.86,40c.13-.31.23-1-.62-1.81Z"/><path class="cls-1" d="M19,24.63a2,2,0,0,0-1.37-.7,1.16,1.16,0,0,0-1.15,1.27v2.27a4.69,4.69,0,0,0,1.37,2.84l9.07,9.06a2,2,0,0,0,1.37.7,1.15,1.15,0,0,0,1.14-1.27V36.53A4.69,4.69,0,0,0,28,33.69Z"/><path class="cls-1" d="M30.31,24.63a2,2,0,0,0-1.38-.7,1.15,1.15,0,0,0-1.14,1.27v2.27a4.64,4.64,0,0,0,1.37,2.83L36,37.11a2,2,0,0,0,1.37.7,1.16,1.16,0,0,0,1.14-1.28V34.27a4.66,4.66,0,0,0-1.37-2.85Z"/><path class="cls-1" d="M46.39,23.93a2,2,0,0,0-1.37.7l-2.26,2.26a4.72,4.72,0,0,0-1.37,2.84V38.8a1.94,1.94,0,0,0,1.94,1.94h2.26a1.94,1.94,0,0,0,1.95-1.94V25.2A1.16,1.16,0,0,0,46.39,23.93Z"/></svg>